<?xml version="1.0" encoding="UTF-8"?><svg xmlns="http://www.w3.org/2000/svg" width="590" height="168" version="1.0" shape-rendering="geometricPrecision"><defs><filter id="shadowBlur" x="0" y="0" width="200%" height="200%"><feOffset in="SourceGraphic" dx="3.0003002" dy="3.0003002" result="offOut"></feOffset><feGaussianBlur in="offOut" stdDeviation="3"></feGaussianBlur></filter></defs><g stroke-width="1" stroke-linecap="square" stroke-linejoin="round"><rect x="0" y="0" width="590" height="168" style="fill: #ffffff"></rect><path stroke="#969696" fill="#969696" filter="url(#shadowBlur)" d="M255.0 105.0 L565.0 105.0 L565.0 133.0 L255.0 133.0 z"></path><path stroke="#969696" fill="#969696" filter="url(#shadowBlur)" d="M25.0 49.0 L215.0 49.0 L215.0 77.0 L25.0 77.0 z"></path><path stroke="#000000" stroke-width="1.0" stroke-linecap="round" stroke-linejoin="round" fill="white" d="M255.0 105.0 L565.0 105.0 L565.0 133.0 L255.0 133.0 z"></path><path stroke="#000000" stroke-width="1.0" stroke-linecap="round" stroke-linejoin="round" fill="white" d="M25.0 49.0 L215.0 49.0 L215.0 77.0 L25.0 77.0 z"></path><path stroke="none" stroke-width="1.0" stroke-linecap="round" stroke-linejoin="round" fill="#000000" d="M240.0 112.0 L250.0 119.0 L240.0 126.0 z"></path><path stroke="#000000" stroke-width="1.0" stroke-linecap="round" stroke-linejoin="round" fill="none" d="M105.0 91.0 L105.0 119.0 "></path><path stroke="#000000" stroke-width="1.0" stroke-linecap="round" stroke-linejoin="round" fill="none" d="M115.0 119.0 L245.0 119.0 "></path><text x="49" y="68" font-family="sans-serif" font-size="15" stroke="none" fill="#000000"><![CDATA[Datos de entrada]]></text><text x="292" y="124" font-family="sans-serif" font-size="15" stroke="none" fill="#000000"><![CDATA[Vinculacion datos de entrada]]></text></g></svg>